<mxfile host="app.diagrams.net" modified="2023-10-05T05:18:45.801Z" agent="Mozilla/5.0 (Windows NT 10.0; Win64; x64) AppleWebKit/537.36 (KHTML, like Gecko) Chrome/116.0.0.0 Safari/537.36" version="22.0.2" etag="54BW5cS5xCJtK-VqBwpt" type="github">
  <diagram name="第 1 页" id="CBpWijsI111IX2zO1qky">
    <mxGraphModel>
      <root>
        <mxCell id="0" />
        <mxCell id="1" parent="0" />
      </root>
    </mxGraphModel>
  </diagram>
</mxfile>
